# xmcd CD database file
#
# Track frame offsets:
#	150
#	19395
#	38095
#
# Disc length: 694 seconds
#
# Revision: 1
# Processed by: cddbd v1.5.1PL0 Copyright (c) Steve Scherf et al.
# Submitted via: CDex 1.51
#
DISCID=1d02b403
DTITLE=Social Distortion - Let It Be Me (promo)
DYEAR=1990
DGENRE=Blues
TTITLE0=Let It Be Me
TTITLE1=It's All Over Now
TTITLE2=Pretty Thing
EXTD=YEAR: 1990
EXTT0=
EXTT1=
EXTT2=
PLAYORDER=
